<?xml version="1.0" standalone="no"?>
<!DOCTYPE svg PUBLIC "-//W3C//DTD SVG 20010904//EN"
 "http://www.w3.org/TR/2001/REC-SVG-20010904/DTD/svg10.dtd">
<svg version="1.0" xmlns="http://www.w3.org/2000/svg"
 width="898.000000pt" height="444.000000pt" viewBox="0 0 898.000000 444.000000"
 preserveAspectRatio="xMidYMid meet">

<g transform="translate(0.000000,444.000000) scale(0.100000,-0.100000)"
fill="#000000" stroke="none">
<path d="M1120 3351 c-21 -45 -27 -50 -64 -56 -83 -13 -83 -13 -36 -60 l41
-42 -9 -54 c-6 -30 -9 -55 -8 -56 1 -2 26 10 54 25 l52 27 51 -29 51 -28 -7
64 -7 64 41 36 c44 41 44 41 -38 53 -40 7 -45 11 -65 56 -11 27 -24 49 -27 49
-3 0 -16 -22 -29 -49z"/>
<path d="M2910 3351 c-21 -45 -27 -50 -64 -56 -81 -13 -81 -13 -35 -54 l42
-37 -10 -62 c-5 -34 -8 -62 -6 -62 2 0 25 12 52 27 l49 28 49 -25 c26 -13 51
-26 54 -28 3 -1 2 23 -4 54 l-9 56 43 44 c46 47 46 48 -32 59 -43 5 -47 9 -69
55 -13 28 -26 50 -30 50 -4 0 -17 -22 -30 -49z"/>
<path d="M1981 3299 c-222 -43 -429 -179 -550 -360 l-42 -62 38 -17 38 -16 38
55 c137 198 352 316 597 328 298 15 554 -124 709 -385 l53 -90 35 11 c42 13
41 20 -19 124 -115 202 -333 360 -560 407 -83 17 -262 20 -337 5z"/>
<path d="M2089 3051 c-23 -23 -29 -38 -29 -71 0 -23 5 -50 10 -61 13 -23 61
-49 92 -49 40 0 86 36 97 76 29 104 -94 180 -170 105z"/>
<path d="M1928 2976 c-91 -37 -141 -71 -201 -136 -59 -63 -109 -155 -126 -230
-17 -73 -13 -201 8 -269 26 -84 60 -137 125 -199 65 -62 135 -96 227 -112 166
-29 348 57 435 206 27 45 29 57 29 149 0 84 -4 107 -23 147 -29 59 -89 121
-144 149 -57 30 -174 33 -192 7 -20 -32 4 -52 73 -60 127 -14 210 -109 211
-238 0 -151 -130 -269 -306 -278 -98 -5 -161 12 -227 64 -214 167 -190 523 47
676 33 21 77 43 98 50 37 11 38 12 31 52 -3 23 -6 42 -7 43 -1 1 -27 -9 -58
-21z"/>
<path d="M2324 2942 l-10 -39 50 -28 c28 -16 83 -60 121 -99 282 -286 190
-732 -189 -912 -92 -44 -216 -68 -306 -59 -183 18 -294 69 -415 190 -125 124
-190 274 -200 462 -2 42 -5 77 -7 78 -2 1 -21 5 -42 8 l-39 6 6 -97 c19 -294
163 -525 407 -651 175 -91 379 -104 573 -36 102 35 172 81 262 170 93 92 154
198 181 311 21 90 14 244 -15 334 -44 138 -161 286 -281 357 -84 49 -84 49
-96 5z"/>
<path d="M1325 2810 c-74 -30 -94 -125 -40 -180 62 -62 152 -40 184 43 13 34
12 42 -2 73 -28 57 -91 86 -142 64z"/>
<path d="M2902 2703 c-57 -28 -81 -111 -46 -161 18 -26 65 -52 94 -52 55 0
110 57 110 115 0 39 -29 82 -66 100 -40 19 -51 19 -92 -2z"/>
<path d="M1983 2520 c-87 -53 -82 -189 9 -236 120 -62 248 55 193 177 -34 74
-131 103 -202 59z"/>
<path d="M6000 2508 c-86 -45 -85 -38 -88 -385 -2 -221 0 -309 9 -319 7 -8 30
-14 55 -14 l44 0 0 200 0 199 103 3 102 3 0 40 0 40 -102 3 -103 3 0 55 c0 45
4 59 25 79 20 21 34 25 84 25 33 0 71 -4 84 -9 28 -11 37 0 37 45 0 36 -45 54
-132 54 -57 0 -84 -5 -118 -22z"/>
<path d="M6372 2514 c-47 -33 -17 -114 43 -114 37 0 65 28 65 65 0 37 -28 65
-65 65 -11 0 -31 -7 -43 -16z"/>
<path d="M4807 2513 c-4 -3 -7 -161 -7 -349 0 -384 -1 -378 69 -372 l36 3 3
349 c2 249 -1 353 -9 362 -12 14 -80 19 -92 7z"/>
<path d="M6646 2511 c-4 -5 -7 -163 -7 -351 -1 -259 2 -344 12 -356 8 -10 26
-14 53 -12 l41 3 3 339 c3 382 2 386 -63 386 -18 0 -36 -4 -39 -9z"/>
<path d="M1008 2439 c-27 -15 -22 -44 27 -187 86 -251 175 -410 302 -535 139
-137 274 -207 488 -252 74 -16 317 -27 328 -15 2 3 2 22 0 42 l-5 36 -116 1
c-259 1 -479 86 -637 245 -116 116 -204 274 -285 513 -56 162 -64 175 -102
152z"/>
<path d="M2954 2433 c-19 -4 -22 -13 -27 -101 -13 -211 -108 -415 -264 -564
-53 -49 -164 -130 -195 -140 -13 -5 11 -78 25 -78 17 0 110 61 180 117 134
108 258 299 307 473 13 45 24 119 27 188 6 123 9 117 -53 105z"/>
<path d="M3729 2316 c-98 -26 -158 -101 -166 -210 -10 -123 19 -205 91 -254
62 -42 170 -50 249 -17 15 6 17 1 17 -44 0 -42 -5 -56 -29 -83 -29 -33 -31
-33 -118 -33 -65 0 -97 5 -123 18 -33 17 -35 17 -47 0 -46 -62 37 -118 177
-118 128 0 214 51 239 142 6 22 11 142 11 281 l0 244 -29 28 c-34 30 -127 60
-187 59 -21 0 -60 -6 -85 -13z m156 -90 l35 -15 0 -135 0 -136 -27 -17 c-39
-26 -123 -24 -160 3 -77 57 -86 214 -15 277 40 36 112 46 167 23z"/>
<path d="M7089 2319 c-61 -9 -98 -29 -141 -77 -46 -51 -62 -100 -62 -192 1
-162 91 -257 251 -268 85 -5 152 10 188 44 28 26 31 42 11 69 -13 18 -14 18
-52 0 -56 -27 -159 -31 -204 -8 -34 18 -80 74 -80 98 0 8 56 20 163 34 89 13
173 30 186 38 21 14 23 20 18 65 -17 137 -132 219 -278 197z m138 -123 c18
-20 33 -46 33 -59 0 -22 -6 -24 -131 -41 -72 -10 -133 -15 -136 -13 -8 9 6 60
26 93 26 43 76 66 131 60 35 -3 51 -11 77 -40z"/>
<path d="M4193 2314 c-10 -4 -13 -53 -13 -197 0 -227 9 -258 88 -305 43 -25
55 -27 152 -27 90 1 112 4 153 24 30 15 52 34 58 49 5 13 8 117 7 230 l-3 206
-26 15 c-16 9 -36 11 -52 7 l-27 -6 0 -204 c0 -240 4 -231 -106 -231 -67 0
-76 2 -101 28 l-28 27 -5 184 c-3 102 -8 187 -11 191 -9 9 -72 15 -86 9z"/>
<path d="M5190 2311 c-37 -12 -85 -38 -98 -54 -18 -22 -18 -647 0 -658 7 -5
32 -9 56 -9 l42 0 0 105 0 105 28 -7 c15 -5 61 -8 103 -8 67 0 81 4 124 30 66
41 104 110 112 203 11 134 -32 228 -128 276 -45 22 -65 26 -133 25 -45 0 -92
-4 -106 -8z m187 -101 c58 -35 84 -123 63 -215 -23 -102 -115 -150 -219 -114
l-31 11 0 157 c0 154 1 158 23 169 38 18 128 14 164 -8z"/>
<path d="M6360 2062 c0 -180 3 -251 12 -260 7 -7 31 -12 55 -12 l43 0 0 248
c0 180 -3 251 -12 260 -7 7 -31 12 -55 12 l-43 0 0 -248z"/>
<path d="M2247 1609 c-15 -11 -32 -37 -38 -58 -32 -107 107 -186 183 -103 32
34 39 63 27 107 -20 71 -114 100 -172 54z"/>
<path d="M1118 1546 c-27 -53 -27 -54 -84 -61 l-56 -7 42 -43 43 -44 -11 -53
c-5 -29 -9 -54 -7 -56 2 -2 26 8 55 23 l51 26 46 -26 c25 -14 47 -25 50 -25 2
0 1 26 -2 58 -7 57 -7 57 35 97 l41 40 -58 10 c-55 10 -59 13 -83 57 -14 26
-28 49 -31 52 -3 3 -17 -19 -31 -48z"/>
<path d="M2913 1548 c-28 -52 -29 -53 -86 -62 l-59 -9 43 -43 42 -43 -10 -56
c-5 -30 -8 -55 -6 -55 2 0 26 11 53 25 l50 25 50 -25 c27 -14 51 -25 53 -25 2
0 0 25 -6 56 l-9 56 42 43 42 42 -59 9 c-57 9 -58 10 -85 62 l-26 52 -29 -52z"/>
</g>
</svg>
